<svg xmlns="http://www.w3.org/2000/svg" viewBox="0 0 39.81 91.4"><defs><style>.cls-1,.cls-4,.cls-5,.cls-8{fill:var(--accent);transition:all 250ms ease;}.cls-2,.cls-3,.cls-6,.cls-7{fill:none;}.cls-2,.cls-3,.cls-4,.cls-5,.cls-6,.cls-7,.cls-8{stroke:var(--accent);transition:all 250ms ease;stroke-miterlimit:10;}.cls-2{stroke-linecap:round;}.cls-2,.cls-7{stroke-width:0.5px;}.cls-3,.cls-4{stroke-width:0.3px;}.cls-5{stroke-width:0.1px;}.cls-6,.cls-8{stroke-width:0.2px;}</style></defs><g id="Layer_2" data-name="Layer 2"><g id="Layer_1-2" data-name="Layer 1"><path class="cls-1" d="M20.37,70.22l-.5.09-1.75.34L16,71.09c.63-2.47,1.1-4.24,1.39-5.31a12.92,12.92,0,0,1,.53-1.54l.2-.58a3.46,3.46,0,0,1,.68,1.09,14,14,0,0,1,.65,1.7A21.45,21.45,0,0,1,20,68.54C20.18,69.39,20.31,70,20.37,70.22Z"/><path class="cls-1" d="M35.22,46.05h-.4a.63.63,0,0,1,.07.26c0,1.73-6.48,2.26-15.42,2.26S3.63,47.93,3.63,46.2a.19.19,0,0,1,.06-.15H3.34a.22.22,0,0,0-.19.24V88.53c0,1.75,8.08,2.87,16.2,2.87,6.06,0,16.06-.76,16.06-2.74V46.3A.23.23,0,0,0,35.22,46.05ZM22.7,70.4a.54.54,0,0,1-.18.27,1.05,1.05,0,0,1-.53.23l-.54.13c.09.54.14.82.14.82.09.38.18.89.28,1.54.22,1.51.44,2.79.67,3.84.06.34.09.55.09.6a.51.51,0,0,1-.14.38.46.46,0,0,1-.35.16.42.42,0,0,1-.33-.23,1.94,1.94,0,0,1-.2-.42c-.11-.5-.21-1.07-.3-1.69s-.2-1.38-.32-2.26q-.07-.57-.24-1.44c-.11-.57-.18-1-.22-1.12-.72.11-2,.35-3.71.71l-1.06.22-.38,1.32-.52,1.79c-.42,1.62-.73,2.87-.91,3.75a1.22,1.22,0,0,1-.22.52.49.49,0,0,1-.4.21A.45.45,0,0,1,13,79.6a.52.52,0,0,1-.14-.38,5.61,5.61,0,0,1,.22-1c.15-.53.23-.84.26-1s.14-.49.29-1,.36-1.29.61-2.11.42-1.38.51-1.64c-.63.17-1.09.32-1.39.42a4.2,4.2,0,0,1-.86.22.3.3,0,0,1-.3-.19.8.8,0,0,1-.1-.41.47.47,0,0,1,.11-.37,1,1,0,0,1,.36-.19l1.47-.4,1.07-.27c.12-.43.22-.79.28-1.09s.11-.44.19-.73.17-.65.26-1.08l.28-1.14c.46-2,.73-3.13.8-3.41a2.89,2.89,0,0,1,.18-.49.25.25,0,0,1,.22-.18,1.53,1.53,0,0,1,.66.13.78.78,0,0,0,.12-.19.72.72,0,0,1,.18-.2.54.54,0,0,1,.27,0c.22,0,.47.3.76.91a19.59,19.59,0,0,1,.83,2.17q.24.73.6,2.19c.25,1,.41,1.62.48,1.93a1.7,1.7,0,0,0,.46-.12l.25-.1a.8.8,0,0,0,.2-.15,1.3,1.3,0,0,1,.2-.17.17.17,0,0,1,.2,0,.58.58,0,0,1,.24.56A1.05,1.05,0,0,1,22.7,70.4Z"/><path class="cls-2" d="M35.22,46.23c0-.44-.71-.79-1.91-1.08"/><path class="cls-2" d="M3.35,46.19c0-.33.68-.63,1.87-.88"/><path class="cls-1" d="M10.44,13.39C9.63,8.27,4.09,1.29,3.17,0c0-.06-.11,0-.11.05-.1,2.63-3.52,11.46-3,15C.39,17.48,1.6,18.64,3.18,19a6.94,6.94,0,0,0,2.88.05,7.23,7.23,0,0,0,2.58-.89C10,17.32,10.82,15.82,10.44,13.39ZM6.11,17.88a7.56,7.56,0,0,0,2-3.53c.19-1.2-1.29-6.48-1.37-6.79.14.29,2.46,4.92,2.49,6.33C9.25,15.11,8.2,16.8,6.11,17.88Z"/><path class="cls-3" d="M8.64,18.2c1,5.2,1.49,7.62,2.33,12.49a9.79,9.79,0,0,1-6.49,1c-.58-5-.76-7.53-1.3-12.63"/><path class="cls-4" d="M13.17,44c-.65-4.12-1.38-8.59-2.2-13.34a9.79,9.79,0,0,1-6.49,1C5.1,37.13,5.73,42.33,6.34,47a29.39,29.39,0,0,0,5.23.65L9.75,33.5a.21.21,0,0,1,.16-.24h0a.19.19,0,0,1,.18.18L12.25,47.7l1,0h.44C13.55,46.54,13.36,45.3,13.17,44Z"/><polygon class="cls-5" points="39.47 17.3 37.95 17.09 39.74 13.9 39.47 17.3"/><path class="cls-5" d="M38.87,23a2.71,2.71,0,0,1-1.69-.59.17.17,0,0,0-.2,0,2,2,0,0,1-1.56-.41.12.12,0,0,0-.15,0,.36.36,0,0,0-.08.12L31.34,34.83h0L27.55,47.41l1.91-.15h0l.91-3v0l6.26-20.77a.21.21,0,0,1,.25-.13.18.18,0,0,1,.13.18.13.13,0,0,1,0,.06L30.15,46.3h0l-.27.91.18,0c.66-.07,1.25-.14,1.75-.22L39,23.2a.28.28,0,0,0,0-.13h0A.12.12,0,0,0,38.87,23Z"/><path class="cls-6" d="M39,23l-.11.34c-.33.21-1.84-.26-1.9-.67-.2.33-1.71,0-1.77-.53l.08-.26,2.64-4.68,1.49.2Z"/><polyline class="cls-7" points="19.09 47.77 19.11 47.55 19.12 47.47 19.42 44.57 19.73 41.59 20.04 38.6 20.34 35.62 20.66 32.63 20.96 29.65 21.27 26.67 21.58 23.68 21.89 20.7 22.2 17.71 22.51 14.73 23.85 1.85 34.65 2.97 31.34 34.83 31.34 34.84 30.46 43.13"/><circle class="cls-7" cx="28.62" cy="8.49" r="1.83"/><line class="cls-7" x1="22.41" y1="14.72" x2="27.53" y2="15.25"/><line class="cls-7" x1="22.1" y1="17.71" x2="27.22" y2="18.24"/><line class="cls-7" x1="21.79" y1="20.69" x2="26.91" y2="21.22"/><line class="cls-7" x1="21.48" y1="23.67" x2="26.6" y2="24.2"/><line class="cls-7" x1="21.17" y1="26.66" x2="26.29" y2="27.19"/><line class="cls-7" x1="20.86" y1="29.64" x2="25.98" y2="30.17"/><line class="cls-7" x1="20.55" y1="32.62" x2="25.67" y2="33.16"/><line class="cls-7" x1="20.24" y1="35.61" x2="25.36" y2="36.14"/><line class="cls-7" x1="19.93" y1="38.59" x2="25.05" y2="39.12"/><line class="cls-7" x1="19.62" y1="41.58" x2="24.75" y2="42.11"/><line class="cls-7" x1="19.31" y1="44.56" x2="24.44" y2="45.09"/><polygon class="cls-8" points="19.72 15.38 18.19 15.53 19.19 12.01 19.72 15.38"/><path class="cls-3" d="M20.62,21.23l-1.5,26.24v.3h0l-2.06,0H15.14l.11-1.93L16.67,21a.16.16,0,0,1,0-.13h0a.11.11,0,0,1,.14,0,2,2,0,0,0,1.61,0,.18.18,0,0,1,.21,0,2.75,2.75,0,0,0,1.78.19.11.11,0,0,1,.12,0A.26.26,0,0,1,20.62,21.23Z"/><polyline class="cls-3" points="20.58 21.11 20.59 21.02 19.69 15.48 18.21 15.63 16.73 20.8 16.72 20.88"/><line class="cls-3" x1="18.59" y1="20.87" x2="17.03" y2="47.79"/><path class="cls-4" d="M15.31,47.78h-.17l-1.41,0h-.44L13.17,44,12.5,23.6s.05.26,1,.23,1-.29,1-.31l.73,22.33Z"/><path class="cls-3" d="M14.12,11.32l.4,12.2s0,.28-1,.32-1-.21-1-.24h0l-.4-12.2a3.46,3.46,0,0,0,1,.16A3.2,3.2,0,0,0,14.12,11.32Z"/><path class="cls-3" d="M14.12,11.22c0,.21-.75.32-1,.33s-1-.08-1-.29.17-1.16,1-1.19S14.11,11,14.12,11.22Z"/></g></g></svg>